<svg width="48" height="48" viewBox="0 0 48 48" fill="none" xmlns="http://www.w3.org/2000/svg">
<g clip-path="url(#clip0_224_27)">
<path d="M24 0C10.7438 0 0 10.7438 0 24C0 37.2562 10.7438 48 24 48C37.2563 48 48 37.2562 48 24C48 10.7438 37.2563 0 24 0ZM29.2969 19.9313L29.025 23.5219H25.3406V35.9906H20.6906V23.5219H18.2063V19.9313H20.6906V17.5219C20.6906 16.4625 20.7188 14.8219 21.4875 13.8C22.3031 12.7219 23.4188 11.9906 25.3406 11.9906C28.4719 11.9906 29.7844 12.4406 29.7844 12.4406L29.1656 16.1156C29.1656 16.1156 28.1344 15.8156 27.1688 15.8156C26.2031 15.8156 25.3406 16.1625 25.3406 17.1281V19.9313H29.2969Z" fill="#16C1C9"/>
</g>
<defs>
<clipPath id="clip0_224_27">
<rect width="48" height="48" fill="white"/>
</clipPath>
</defs>
</svg>
