<svg width="24" height="24" viewBox="0 0 24 24" fill="none" xmlns="http://www.w3.org/2000/svg">
<g clip-path="url(#clip0_272_12)">
<path d="M12 14.109C13.1625 14.109 14.114 13.1621 14.114 11.9949C14.114 11.5355 13.964 11.109 13.7156 10.7621C13.3312 10.2324 12.7078 9.88086 12.0047 9.88086C11.3015 9.88086 10.6781 10.2277 10.2937 10.7621C10.0453 11.109 9.89528 11.5355 9.89528 11.9949C9.89059 13.1621 10.8375 14.109 12 14.109Z" fill="#E66767"/>
<path d="M16.6125 9.41719V7.64531V7.38281H16.35L14.5781 7.3875L14.5875 9.42188L16.6125 9.41719Z" fill="#E66767"/>
<path d="M15.2812 12.0004C15.2812 13.8098 13.8094 15.2816 12 15.2816C10.1906 15.2816 8.71875 13.8098 8.71875 12.0004C8.71875 11.5645 8.80781 11.1473 8.9625 10.7676H7.17188V15.6801C7.17188 16.3129 7.6875 16.8285 8.32031 16.8285H15.6797C16.3125 16.8285 16.8281 16.3129 16.8281 15.6801V10.7676H15.0375C15.1969 11.1473 15.2812 11.5645 15.2812 12.0004Z" fill="#E66767"/>
<path d="M12 0C5.37188 0 0 5.37188 0 12C0 18.6281 5.37188 24 12 24C18.6281 24 24 18.6281 24 12C24 5.37188 18.6281 0 12 0ZM18 10.7672V15.6797C18 16.9594 16.9594 18 15.6797 18H8.32031C7.04063 18 6 16.9594 6 15.6797V10.7672V8.31562C6 7.03594 7.04063 5.99531 8.32031 5.99531H15.6797C16.9594 5.99531 18 7.03594 18 8.31562V10.7672Z" fill="#E66767"/>
</g>
<defs>
<clipPath id="clip0_272_12">
<rect width="24" height="24" fill="white"/>
</clipPath>
</defs>
</svg>
