<svg width="48" height="48" viewBox="0 0 48 48" fill="none" xmlns="http://www.w3.org/2000/svg">
<g clip-path="url(#clip0_224_29)">
<path d="M24 28.2189C26.325 28.2189 28.2281 26.3252 28.2281 23.9908C28.2281 23.0721 27.9281 22.2189 27.4312 21.5252C26.6625 20.4658 25.4156 19.7627 24.0094 19.7627C22.6031 19.7627 21.3562 20.4564 20.5875 21.5252C20.0906 22.2189 19.7906 23.0721 19.7906 23.9908C19.7812 26.3252 21.675 28.2189 24 28.2189Z" fill="#16C1C9"/>
<path d="M33.225 18.8344V15.2906V14.7656H32.7L29.1562 14.775L29.175 18.8438L33.225 18.8344Z" fill="#16C1C9"/>
<path d="M30.5625 23.9998C30.5625 27.6186 27.6188 30.5623 24 30.5623C20.3813 30.5623 17.4375 27.6186 17.4375 23.9998C17.4375 23.1279 17.6156 22.2936 17.925 21.5342H14.3438V31.3592C14.3438 32.6248 15.375 33.6561 16.6406 33.6561H31.3594C32.625 33.6561 33.6563 32.6248 33.6563 31.3592V21.5342H30.075C30.3938 22.2936 30.5625 23.1279 30.5625 23.9998Z" fill="#16C1C9"/>
<path d="M24 0C10.7438 0 0 10.7438 0 24C0 37.2562 10.7438 48 24 48C37.2563 48 48 37.2562 48 24C48 10.7438 37.2563 0 24 0ZM36 21.5344V31.3594C36 33.9187 33.9188 36 31.3594 36H16.6406C14.0813 36 12 33.9187 12 31.3594V21.5344V16.6312C12 14.0719 14.0813 11.9906 16.6406 11.9906H31.3594C33.9188 11.9906 36 14.0719 36 16.6312V21.5344Z" fill="#16C1C9"/>
</g>
<defs>
<clipPath id="clip0_224_29">
<rect width="48" height="48" fill="white"/>
</clipPath>
</defs>
</svg>
