<svg width="48" height="48" viewBox="0 0 48 48" fill="none" xmlns="http://www.w3.org/2000/svg">
<g clip-path="url(#clip0_224_35)">
<path d="M24 0C10.7452 0 0 10.7452 0 24C0 37.2548 10.7452 48 24 48C37.2548 48 48 37.2548 48 24C48 10.7452 37.2548 0 24 0ZM24.4618 20.3804C24.4697 20.3808 24.4772 20.3824 24.4853 20.3828C24.4032 20.031 24.3608 19.6642 24.3608 19.2876C24.3608 16.6338 26.5124 14.4821 29.1666 14.4821C30.5486 14.4821 31.7975 15.0657 32.6741 15.9998C33.5741 15.8226 34.4258 15.5147 35.2175 15.107C35.3844 15.026 35.5518 14.9454 35.7162 14.8563C35.4313 15.7313 34.8965 16.4887 34.203 17.0624C34.0151 17.2102 33.8222 17.3528 33.6099 17.4697C33.6244 17.468 33.6384 17.4648 33.6528 17.463C33.6387 17.4717 33.627 17.4836 33.6127 17.4922C34.4003 17.398 35.1557 17.2062 35.8731 16.9352C36.0338 16.8797 36.1944 16.8235 36.3537 16.7616C35.7123 17.714 34.905 18.5517 33.9748 19.2233C33.984 19.4293 33.9887 19.6364 33.9887 19.845C33.9887 26.1952 29.1551 33.5177 20.3158 33.5177C17.602 33.5177 15.076 32.7223 12.9493 31.3588C13.3253 31.4032 13.7079 31.4258 14.0958 31.4258C15.8898 31.4258 17.5658 30.9319 19.0067 30.0815C19.3696 29.8724 19.7246 29.6466 20.0635 29.391C20.0543 29.3908 20.046 29.3886 20.0368 29.3884C20.0456 29.3815 20.0552 29.3756 20.0639 29.3688C18.2431 29.3352 16.6717 28.287 15.8851 26.7675C15.7679 26.5342 15.6676 26.2897 15.5885 26.0333C15.8778 26.0877 16.174 26.1175 16.4791 26.1175C16.797 26.1175 17.104 26.0767 17.4045 26.0179C17.5167 26.0021 17.6301 25.989 17.7407 25.9708C17.7261 25.9678 17.7132 25.9614 17.6986 25.9583C17.7138 25.9544 17.7301 25.9531 17.7451 25.949C15.5468 25.5075 13.8902 23.5651 13.8902 21.2369C13.8902 21.2185 13.8904 21.2006 13.8906 21.1825L13.8928 21.1774C14.4104 21.4646 14.989 21.6548 15.6019 21.7343C15.7527 21.7595 15.9038 21.7826 16.0549 21.7958C16.0446 21.7889 16.0357 21.7805 16.0254 21.7735C16.0397 21.7741 16.0533 21.7769 16.0673 21.7774C14.7779 20.9157 13.9296 19.4446 13.9296 17.7774C13.9296 17.0141 14.1159 16.2974 14.4327 15.6565C14.4833 15.5602 14.5282 15.4617 14.5862 15.3683C16.7153 17.9767 19.7908 19.7719 23.2863 20.2574C23.6763 20.3141 24.0674 20.3647 24.4631 20.3875C24.4626 20.3853 24.4624 20.3828 24.4618 20.3804Z" fill="#16C1C9"/>
</g>
<defs>
<clipPath id="clip0_224_35">
<rect width="48" height="48" fill="white"/>
</clipPath>
</defs>
</svg>
