<svg width="516" height="149" viewBox="0 0 516 149" fill="none" xmlns="http://www.w3.org/2000/svg">
<rect width="516" height="149" fill="#FE960F"/>
<path d="M34.125 76.8438C33.5625 77.8438 32.9062 79.0625 32.1562 80.5C31.4688 81.875 30.7188 83.375 29.9062 85C29.0938 86.5625 28.1875 88.1562 27.1875 89.7812C26.25 91.3438 25.25 92.7812 24.1875 94.0938C23.1875 95.4062 22.125 96.5312 21 97.4688C19.875 98.3438 18.7188 98.875 17.5312 99.0625C17.0312 99.0625 16.4688 99.0312 15.8438 98.9688C15.2188 98.8438 14.5938 98.6875 13.9688 98.5C13.3438 98.25 12.8125 97.9375 12.375 97.5625C12 97.125 11.8125 96.5625 11.8125 95.875C11.875 89.5 12.3438 83.7188 13.2188 78.5312C14.0938 73.2812 15.4688 68.6875 17.3438 64.75C19.2188 60.75 21.625 57.4375 24.5625 54.8125C27.5 52.1875 31.0625 50.3125 35.25 49.1875C35.375 49.1875 35.5938 49.1875 35.9062 49.1875C36.2812 49.125 36.5312 49.0938 36.6562 49.0938C38.5312 49.0312 39.875 49.9062 40.6875 51.7188C41.5625 53.4688 42.1875 56.2812 42.5625 60.1562C43 63.9688 43.2812 68.9062 43.4062 74.9688C43.5938 80.9688 43.9375 88.1875 44.4375 96.625C44.625 97.3125 44.7188 97.9062 44.7188 98.4062C44.7812 98.9062 44.8125 99.5 44.8125 100.188C44.8125 101.125 44.5312 101.844 43.9688 102.344C43.4062 102.781 42.6875 103 41.8125 103C40 103 38.7188 102.5 37.9688 101.5C37.2188 100.5 36.7188 99.1562 36.4688 97.4688C36.4688 97.4062 36.4062 96.9062 36.2812 95.9688C36.2188 95.0312 36.0938 93.9688 35.9062 92.7812C35.7812 91.5312 35.6562 90.2812 35.5312 89.0312C35.4062 87.7812 35.3125 86.75 35.25 85.9375V85.5625C35.125 84.9375 35.0312 84.1562 34.9688 83.2188C34.9688 82.2812 34.9062 81.375 34.7812 80.5C34.6562 79.4375 34.5625 78.375 34.5 77.3125L34.125 76.8438ZM32.0625 58.2812C30.375 59.5312 28.7188 61.2188 27.0938 63.3438C25.4688 65.4688 24.3125 67.5312 23.625 69.5312C23.3125 70.4688 22.9688 71.75 22.5938 73.375C22.2188 75 21.875 76.625 21.5625 78.25C21.3125 79.8125 21.0938 81.2812 20.9062 82.6562C20.7188 83.9688 20.625 84.8125 20.625 85.1875C20.6875 85.1875 20.75 85.125 20.8125 85C20.9375 84.875 21.0312 84.7812 21.0938 84.7188C24.9688 80.9688 27.6875 76.9375 29.25 72.625C30.875 68.25 31.8125 63.4688 32.0625 58.2812ZM68.25 94.0938C67.8125 95.0312 67.375 96.0625 66.9375 97.1875C66.5 98.25 66 99.2188 65.4375 100.094C64.875 100.969 64.1875 101.719 63.375 102.344C62.5625 102.906 61.5312 103.188 60.2812 103.188C58.0938 103.188 56.2812 102.656 54.8438 101.594C53.4062 100.469 52.2188 99.0938 51.2812 97.4688C50.4062 95.7812 49.7812 93.9688 49.4062 92.0312C49.0312 90.0938 48.8438 88.2812 48.8438 86.5938L49.5938 63.9062C49.5312 63.4688 49.625 63.0312 49.875 62.5938C50.1875 62.0938 50.5625 61.6562 51 61.2812C51.5 60.8438 52.0312 60.5 52.5938 60.25C53.2188 60 53.7812 59.875 54.2812 59.875C55.7188 59.875 56.9375 60.3438 57.9375 61.2812C58.9375 62.1562 59.4375 63.3125 59.4375 64.75V65.6875C58.75 66.8125 58.1562 68.2812 57.6562 70.0938C57.1562 71.9062 56.75 73.875 56.4375 76C56.1875 78.0625 56.0312 80.1875 55.9688 82.375C55.9062 84.5625 55.9688 86.5625 56.1562 88.375C56.4062 90.1875 56.7812 91.75 57.2812 93.0625C57.7812 94.3125 58.4375 95.0625 59.25 95.3125C59.5625 95.3125 60.0312 95.1562 60.6562 94.8438C61.3438 94.5312 62.0625 93.9375 62.8125 93.0625C63.5625 92.1875 64.3438 90.9688 65.1562 89.4062C65.9688 87.7812 66.6875 85.6562 67.3125 83.0312C67.9375 80.4062 68.4062 77.2188 68.7188 73.4688C69.0312 69.7188 69.125 65.2188 69 59.9688C69.25 59.2812 69.5938 58.9062 70.0312 58.8438C70.5312 58.7812 71.0312 58.75 71.5312 58.75C72.0938 58.75 72.5625 58.7812 72.9375 58.8438C73.3125 58.8438 73.7188 59.0625 74.1562 59.5C74.4688 59.8125 74.8125 60.2812 75.1875 60.9062C75.5625 61.5312 75.75 61.875 75.75 61.9375L77.3438 103.469C77.3438 104.406 77.0938 105.188 76.5938 105.812C76.0938 106.438 75.375 106.75 74.4375 106.75C74.125 106.75 73.75 106.719 73.3125 106.656C72.875 106.594 72.4375 106.469 72 106.281C71.5625 106.094 71.1562 105.844 70.7812 105.531C70.4688 105.281 70.2812 104.969 70.2188 104.594L68.625 95.2188L68.25 94.0938ZM83.9062 72.4375C83.7812 70.8125 83.625 69.1875 83.4375 67.5625C83.3125 65.875 83.0938 64.2188 82.7812 62.5938C82.7812 61.2188 83.2188 60.3438 84.0938 59.9688C85.0312 59.5938 86.0312 59.4062 87.0938 59.4062H88.9688C89.9062 59.8438 90.5625 60.375 90.9375 61C91.3125 61.625 91.5625 62.3125 91.6875 63.0625C91.8125 63.8125 91.8438 64.5938 91.7812 65.4062C91.7812 66.2188 91.8125 67 91.875 67.75C91.9375 68.0625 91.9688 68.5938 91.9688 69.3438C91.9688 70.0938 91.9688 70.875 91.9688 71.6875C92.0312 72.5 92.0938 73.25 92.1562 73.9375C92.2812 74.625 92.4375 75.0625 92.625 75.25L100.875 59.7812C101.25 59.0938 101.781 58.5312 102.469 58.0938C103.219 57.5938 104.031 57.4062 104.906 57.5312C106.281 57.6562 107.312 57.9375 108 58.375C108.688 58.75 109.156 59.2812 109.406 59.9688C109.719 60.5938 109.875 61.375 109.875 62.3125C109.938 63.25 110 64.2812 110.062 65.4062C110.062 65.7812 110.094 66.5 110.156 67.5625C110.219 68.5625 110.281 69.625 110.344 70.75C110.469 71.875 110.562 72.9375 110.625 73.9375C110.75 74.9375 110.844 75.625 110.906 76H111.281C111.406 75.5625 111.625 74.7188 111.938 73.4688C112.312 72.2188 112.719 70.9062 113.156 69.5312C113.594 68.1562 114 66.8438 114.375 65.5938C114.75 64.3438 115.031 63.4688 115.219 62.9688C115.281 62.8438 115.406 62.5938 115.594 62.2188C115.781 61.7812 115.969 61.3438 116.156 60.9062C116.344 60.4062 116.531 59.9688 116.719 59.5938C116.906 59.1562 117.031 58.8438 117.094 58.6562C117.531 57.9688 117.969 57.625 118.406 57.625C118.906 57.5625 119.438 57.5312 120 57.5312C121.562 57.5312 122.75 57.9375 123.562 58.75C124.438 59.5 125.062 60.4688 125.438 61.6562C125.875 62.8438 126.188 64.1562 126.375 65.5938C126.562 66.9688 126.781 68.25 127.031 69.4375C127.094 69.4375 127.125 69.5 127.125 69.625C127.125 69.6875 127.094 69.75 127.031 69.8125L132.188 97.0938C132.438 97.3438 132.562 97.5625 132.562 97.75C132.625 97.9375 132.656 98.1875 132.656 98.5C132.656 99.1875 132.312 99.875 131.625 100.562C131 101.188 130.344 101.5 129.656 101.5C128.719 101.5 127.625 101.156 126.375 100.469C125.188 99.7812 124.5 98.9062 124.312 97.8438L120 75.625L119.531 74.875C119.406 75.1875 119.125 76.0938 118.688 77.5938C118.312 79.0312 117.844 80.875 117.281 83.125C116.719 85.3125 116.062 87.7812 115.312 90.5312C114.625 93.2812 113.906 96.0938 113.156 98.9688C113.031 99.5312 112.656 99.9688 112.031 100.281C111.469 100.531 110.969 100.656 110.531 100.656C109.219 100.656 108.156 100.5 107.344 100.188C106.531 99.875 105.906 99.4062 105.469 98.7812C105.031 98.1562 104.719 97.4062 104.531 96.5312C104.344 95.6562 104.188 94.6562 104.062 93.5312C104.062 93.2812 104 92.4062 103.875 90.9062C103.75 89.3438 103.594 87.5938 103.406 85.6562C103.281 83.6562 103.125 81.6562 102.938 79.6562C102.75 77.6562 102.625 76.0625 102.562 74.875C102.562 74.625 102.562 74.4375 102.562 74.3125C102.562 74.1875 102.562 74.0938 102.562 74.0312C102.562 73.9062 102.531 73.7812 102.469 73.6562C102.406 73.4688 102.281 73.1875 102.094 72.8125L99.375 79.2812L95.0625 95.125L94.125 100.938C94.0625 101.312 93.875 101.656 93.5625 101.969C93.3125 102.219 93 102.438 92.625 102.625C92.25 102.75 91.875 102.844 91.5 102.906C91.125 102.969 90.8125 103 90.5625 103C89.1875 103 88 102.5 87 101.5C86.0625 100.5 85.5625 99.4062 85.5 98.2188C85.4375 97.7812 85.375 96.9375 85.3125 95.6875C85.25 94.375 85.1562 92.8438 85.0312 91.0938C84.9062 89.3438 84.7812 87.5 84.6562 85.5625C84.5938 83.625 84.5 81.7812 84.375 80.0312C84.25 78.2812 84.125 76.75 84 75.4375C83.9375 74.125 83.9062 73.25 83.9062 72.8125V72.4375ZM141.375 99.4375C140.75 93.1875 140.219 87.8438 139.781 83.4062C139.344 78.9688 138.969 75.25 138.656 72.25C138.344 69.25 138.062 66.875 137.812 65.125C137.625 63.3125 137.469 61.9688 137.344 61.0938C137.219 60.1562 137.125 59.5312 137.062 59.2188C137 58.9062 136.969 58.7188 136.969 58.6562V58.2812C136.969 57.5938 137.25 57.0312 137.812 56.5938C138.438 56.0938 139.062 55.8438 139.688 55.8438C140.625 55.8438 141.625 56 142.688 56.3125C143.812 56.625 144.562 57.2812 144.938 58.2812C145.5 61.3438 145.875 64.4375 146.062 67.5625C146.312 70.6875 146.5 73.8125 146.625 76.9375C146.812 80 147.031 83.0938 147.281 86.2188C147.594 89.3438 148.125 92.4375 148.875 95.5C148.875 95.625 148.906 95.875 148.969 96.25C149.094 96.625 149.188 97.0312 149.25 97.4688C149.375 97.9062 149.469 98.3125 149.531 98.6875C149.594 99.0625 149.625 99.3125 149.625 99.4375V99.625C149.625 99.6875 149.656 99.75 149.719 99.8125C149.719 100.562 149.375 101.312 148.688 102.062C148 102.812 147.281 103.125 146.531 103C146.344 102.938 145.875 102.844 145.125 102.719C144.438 102.531 143.969 102.375 143.719 102.25C143.531 102.188 143.281 102.062 142.969 101.875C142.656 101.625 142.344 101.375 142.031 101.125C141.781 100.875 141.562 100.594 141.375 100.281C141.188 99.9688 141.188 99.6875 141.375 99.4375ZM136.125 31.0938C136.125 30.6563 136.469 30.2813 137.156 29.9688C137.906 29.5938 138.469 29.4062 138.844 29.4062C139.781 29.4062 140.812 29.6875 141.938 30.25C143.125 30.75 143.719 31.5312 143.719 32.5938C143.719 33.6562 143.562 34.375 143.25 34.75C143 35.125 142.344 35.3125 141.281 35.3125C140.156 35.3125 139 34.9375 137.812 34.1875C136.688 33.4375 136.125 32.4062 136.125 31.0938ZM175.031 76.8438C174.469 77.8438 173.812 79.0625 173.062 80.5C172.375 81.875 171.625 83.375 170.812 85C170 86.5625 169.094 88.1562 168.094 89.7812C167.156 91.3438 166.156 92.7812 165.094 94.0938C164.094 95.4062 163.031 96.5312 161.906 97.4688C160.781 98.3438 159.625 98.875 158.438 99.0625C157.938 99.0625 157.375 99.0312 156.75 98.9688C156.125 98.8438 155.5 98.6875 154.875 98.5C154.25 98.25 153.719 97.9375 153.281 97.5625C152.906 97.125 152.719 96.5625 152.719 95.875C152.781 89.5 153.25 83.7188 154.125 78.5312C155 73.2812 156.375 68.6875 158.25 64.75C160.125 60.75 162.531 57.4375 165.469 54.8125C168.406 52.1875 171.969 50.3125 176.156 49.1875C176.281 49.1875 176.5 49.1875 176.812 49.1875C177.188 49.125 177.438 49.0938 177.562 49.0938C179.438 49.0312 180.781 49.9062 181.594 51.7188C182.469 53.4688 183.094 56.2812 183.469 60.1562C183.906 63.9688 184.188 68.9062 184.312 74.9688C184.5 80.9688 184.844 88.1875 185.344 96.625C185.531 97.3125 185.625 97.9062 185.625 98.4062C185.688 98.9062 185.719 99.5 185.719 100.188C185.719 101.125 185.438 101.844 184.875 102.344C184.312 102.781 183.594 103 182.719 103C180.906 103 179.625 102.5 178.875 101.5C178.125 100.5 177.625 99.1562 177.375 97.4688C177.375 97.4062 177.312 96.9062 177.188 95.9688C177.125 95.0312 177 93.9688 176.812 92.7812C176.688 91.5312 176.562 90.2812 176.438 89.0312C176.312 87.7812 176.219 86.75 176.156 85.9375V85.5625C176.031 84.9375 175.938 84.1562 175.875 83.2188C175.875 82.2812 175.812 81.375 175.688 80.5C175.562 79.4375 175.469 78.375 175.406 77.3125L175.031 76.8438ZM172.969 58.2812C171.281 59.5312 169.625 61.2188 168 63.3438C166.375 65.4688 165.219 67.5312 164.531 69.5312C164.219 70.4688 163.875 71.75 163.5 73.375C163.125 75 162.781 76.625 162.469 78.25C162.219 79.8125 162 81.2812 161.812 82.6562C161.625 83.9688 161.531 84.8125 161.531 85.1875C161.594 85.1875 161.656 85.125 161.719 85C161.844 84.875 161.938 84.7812 162 84.7188C165.875 80.9688 168.594 76.9375 170.156 72.625C171.781 68.25 172.719 63.4688 172.969 58.2812ZM209.156 94.0938C208.719 95.0312 208.281 96.0625 207.844 97.1875C207.406 98.25 206.906 99.2188 206.344 100.094C205.781 100.969 205.094 101.719 204.281 102.344C203.469 102.906 202.438 103.188 201.188 103.188C199 103.188 197.188 102.656 195.75 101.594C194.312 100.469 193.125 99.0938 192.188 97.4688C191.312 95.7812 190.688 93.9688 190.312 92.0312C189.938 90.0938 189.75 88.2812 189.75 86.5938L190.5 63.9062C190.438 63.4688 190.531 63.0312 190.781 62.5938C191.094 62.0938 191.469 61.6562 191.906 61.2812C192.406 60.8438 192.938 60.5 193.5 60.25C194.125 60 194.688 59.875 195.188 59.875C196.625 59.875 197.844 60.3438 198.844 61.2812C199.844 62.1562 200.344 63.3125 200.344 64.75V65.6875C199.656 66.8125 199.062 68.2812 198.562 70.0938C198.062 71.9062 197.656 73.875 197.344 76C197.094 78.0625 196.938 80.1875 196.875 82.375C196.812 84.5625 196.875 86.5625 197.062 88.375C197.312 90.1875 197.688 91.75 198.188 93.0625C198.688 94.3125 199.344 95.0625 200.156 95.3125C200.469 95.3125 200.938 95.1562 201.562 94.8438C202.25 94.5312 202.969 93.9375 203.719 93.0625C204.469 92.1875 205.25 90.9688 206.062 89.4062C206.875 87.7812 207.594 85.6562 208.219 83.0312C208.844 80.4062 209.312 77.2188 209.625 73.4688C209.938 69.7188 210.031 65.2188 209.906 59.9688C210.156 59.2812 210.5 58.9062 210.938 58.8438C211.438 58.7812 211.938 58.75 212.438 58.75C213 58.75 213.469 58.7812 213.844 58.8438C214.219 58.8438 214.625 59.0625 215.062 59.5C215.375 59.8125 215.719 60.2812 216.094 60.9062C216.469 61.5312 216.656 61.875 216.656 61.9375L218.25 103.469C218.25 104.406 218 105.188 217.5 105.812C217 106.438 216.281 106.75 215.344 106.75C215.031 106.75 214.656 106.719 214.219 106.656C213.781 106.594 213.344 106.469 212.906 106.281C212.469 106.094 212.062 105.844 211.688 105.531C211.375 105.281 211.188 104.969 211.125 104.594L209.531 95.2188L209.156 94.0938ZM262.875 100.188C262.75 93.25 262.562 86.3438 262.312 79.4688C262.125 72.5312 262.031 65.5938 262.031 58.6562C262.031 58.1562 262.031 57.2812 262.031 56.0312C262.031 54.7188 262.031 53.3438 262.031 51.9062C262.094 50.4688 262.125 49.125 262.125 47.875C262.125 46.625 262.125 45.75 262.125 45.25C262.375 44.25 262.75 43.4688 263.25 42.9062C263.75 42.2812 264.531 41.9688 265.594 41.9688C266.656 41.9688 267.594 42.3125 268.406 43C269.219 43.625 269.875 44.375 270.375 45.25L283.875 71.3125C283.938 71.4375 284.156 71.8125 284.531 72.4375C284.906 73.0625 285.188 73.5 285.375 73.75C285.438 73.8125 285.531 73.875 285.656 73.9375C285.781 74 285.844 74.0625 285.844 74.125L286.219 73.2812L294.188 45.25C294.75 44.375 295.156 43.4062 295.406 42.3438C295.719 41.2188 296.031 40.125 296.344 39.0625C296.719 38 297.156 37 297.656 36.0625C298.219 35.125 299.031 34.3438 300.094 33.7188H300.844C302.531 33.7188 303.781 34.2188 304.594 35.2188C305.406 36.1562 305.969 37.3438 306.281 38.7812C306.594 40.1562 306.719 41.625 306.656 43.1875C306.656 44.6875 306.688 46 306.75 47.125C306.75 47.5625 306.781 48.4062 306.844 49.6562C306.969 50.9062 307.094 52.375 307.219 54.0625C307.344 55.75 307.469 57.5625 307.594 59.5C307.719 61.375 307.812 63.1562 307.875 64.8438C308 66.5312 308.094 68 308.156 69.25C308.281 70.5 308.344 71.3125 308.344 71.6875V72.0625C308.406 72.625 308.531 73.5625 308.719 74.875C308.906 76.1875 309.094 77.5938 309.281 79.0938C309.531 80.5312 309.75 81.9062 309.938 83.2188C310.125 84.5312 310.281 85.4375 310.406 85.9375C310.469 86.25 310.562 86.7188 310.688 87.3438C310.875 87.9688 311.062 88.6562 311.25 89.4062C311.5 90.0938 311.719 90.75 311.906 91.375C312.094 92 312.25 92.4375 312.375 92.6875C312.125 94.125 311.75 95.25 311.25 96.0625C310.812 96.8125 309.812 97.1875 308.25 97.1875C308.062 97.1875 307.781 97.1875 307.406 97.1875C307.031 97.125 306.812 97.0938 306.75 97.0938C306.562 96.9688 306.188 96.6562 305.625 96.1562C305.125 95.6562 304.844 95.3125 304.781 95.125L303.281 89.9688L300.469 68.5938V67.75C300.406 66.625 300.375 65.4375 300.375 64.1875C300.375 62.875 300.344 61.5625 300.281 60.25C300.281 58.9375 300.219 57.625 300.094 56.3125C299.969 55 299.719 53.7812 299.344 52.6562L298.875 53.2188L292.125 80.4062C292.062 81.0938 292 81.8438 291.938 82.6562C291.875 83.4062 291.719 84.1562 291.469 84.9062C291.219 85.5938 290.844 86.1875 290.344 86.6875C289.844 87.1875 289.125 87.4688 288.188 87.5312C287.812 87.5938 287.406 87.5312 286.969 87.3438C286.531 87.1562 286.094 86.9062 285.656 86.5938C285.219 86.2812 284.812 85.9375 284.438 85.5625C284.125 85.125 283.938 84.7188 283.875 84.3438L271.969 65.4062L270 61.4688V69.5312C270 73.3438 270.062 77.0938 270.188 80.7812C270.375 84.4062 270.469 88.125 270.469 91.9375C270.469 92.25 270.469 92.8125 270.469 93.625C270.469 94.375 270.438 95.1875 270.375 96.0625C270.375 96.9375 270.375 97.7812 270.375 98.5938C270.375 99.3438 270.375 99.875 270.375 100.188C270.125 100.938 269.75 101.594 269.25 102.156C268.812 102.719 268.156 103 267.281 103C266.094 103 265.156 102.812 264.469 102.438C263.844 102 263.312 101.25 262.875 100.188ZM338.531 76.8438C337.969 77.8438 337.312 79.0625 336.562 80.5C335.875 81.875 335.125 83.375 334.312 85C333.5 86.5625 332.594 88.1562 331.594 89.7812C330.656 91.3438 329.656 92.7812 328.594 94.0938C327.594 95.4062 326.531 96.5312 325.406 97.4688C324.281 98.3438 323.125 98.875 321.938 99.0625C321.438 99.0625 320.875 99.0312 320.25 98.9688C319.625 98.8438 319 98.6875 318.375 98.5C317.75 98.25 317.219 97.9375 316.781 97.5625C316.406 97.125 316.219 96.5625 316.219 95.875C316.281 89.5 316.75 83.7188 317.625 78.5312C318.5 73.2812 319.875 68.6875 321.75 64.75C323.625 60.75 326.031 57.4375 328.969 54.8125C331.906 52.1875 335.469 50.3125 339.656 49.1875C339.781 49.1875 340 49.1875 340.312 49.1875C340.688 49.125 340.938 49.0938 341.062 49.0938C342.938 49.0312 344.281 49.9062 345.094 51.7188C345.969 53.4688 346.594 56.2812 346.969 60.1562C347.406 63.9688 347.688 68.9062 347.812 74.9688C348 80.9688 348.344 88.1875 348.844 96.625C349.031 97.3125 349.125 97.9062 349.125 98.4062C349.188 98.9062 349.219 99.5 349.219 100.188C349.219 101.125 348.938 101.844 348.375 102.344C347.812 102.781 347.094 103 346.219 103C344.406 103 343.125 102.5 342.375 101.5C341.625 100.5 341.125 99.1562 340.875 97.4688C340.875 97.4062 340.812 96.9062 340.688 95.9688C340.625 95.0312 340.5 93.9688 340.312 92.7812C340.188 91.5312 340.062 90.2812 339.938 89.0312C339.812 87.7812 339.719 86.75 339.656 85.9375V85.5625C339.531 84.9375 339.438 84.1562 339.375 83.2188C339.375 82.2812 339.312 81.375 339.188 80.5C339.062 79.4375 338.969 78.375 338.906 77.3125L338.531 76.8438ZM336.469 58.2812C334.781 59.5312 333.125 61.2188 331.5 63.3438C329.875 65.4688 328.719 67.5312 328.031 69.5312C327.719 70.4688 327.375 71.75 327 73.375C326.625 75 326.281 76.625 325.969 78.25C325.719 79.8125 325.5 81.2812 325.312 82.6562C325.125 83.9688 325.031 84.8125 325.031 85.1875C325.094 85.1875 325.156 85.125 325.219 85C325.344 84.875 325.438 84.7812 325.5 84.7188C329.375 80.9688 332.094 76.9375 333.656 72.625C335.281 68.25 336.219 63.4688 336.469 58.2812ZM358.312 98.9688C358.188 96.7188 357.969 93.7188 357.656 89.9688C357.406 86.1562 357.094 82.2188 356.719 78.1562C356.406 74.0938 356.062 70.25 355.688 66.625C355.312 63 355 60.1875 354.75 58.1875C354.75 57.375 355.125 56.8438 355.875 56.5938C356.625 56.3438 357.344 56.2188 358.031 56.2188C358.906 56.2188 359.812 56.4688 360.75 56.9688C361.75 57.4688 362.375 58.1562 362.625 59.0312C362.625 59.2812 362.656 59.75 362.719 60.4375C362.781 61.0625 362.812 61.7188 362.812 62.4062C362.875 63.0938 362.938 63.7812 363 64.4688C363.062 65.0938 363.094 65.5312 363.094 65.7812C363.094 66.1562 363.094 66.4375 363.094 66.625C363.094 66.8125 363.094 67 363.094 67.1875C363.094 67.3125 363.125 67.4688 363.188 67.6562C363.25 67.8438 363.344 68.1562 363.469 68.5938C363.594 68.4688 363.719 68.3125 363.844 68.125C364.031 67.9375 364.156 67.8125 364.219 67.75C365.219 66.3125 366.188 65.0625 367.125 64C368.062 62.875 369.031 61.8438 370.031 60.9062C371.031 59.9062 372.125 58.875 373.312 57.8125C374.562 56.6875 376 55.4062 377.625 53.9688C378 53.6562 378.281 53.4375 378.469 53.3125C378.656 53.125 378.812 53 378.938 52.9375C379.125 52.8125 379.312 52.75 379.5 52.75C379.688 52.6875 379.938 52.6562 380.25 52.6562C381.312 52.6562 382.375 53.0312 383.438 53.7812C384.562 54.4688 385.125 55.4375 385.125 56.6875C385.125 57.125 384.969 57.5938 384.656 58.0938C384.344 58.5312 383.969 58.9688 383.531 59.4062C383.094 59.7812 382.625 60.125 382.125 60.4375C381.688 60.75 381.281 60.9688 380.906 61.0938C379.281 62.5312 377.562 64.1875 375.75 66.0625C373.938 67.875 372.25 69.8438 370.688 71.9688C369.125 74.0938 367.844 76.3125 366.844 78.625C365.844 80.9375 365.344 83.25 365.344 85.5625C365.344 87.6875 365.5 89.7812 365.812 91.8438C366.125 93.9062 366.281 96 366.281 98.125V101.406C365.781 101.906 365.344 102.312 364.969 102.625C364.594 102.938 364.062 103.094 363.375 103.094C362.312 103.094 361.281 102.656 360.281 101.781C359.281 100.844 358.625 99.9062 358.312 98.9688ZM388.875 106.469C388.875 106.156 388.844 105.625 388.781 104.875C388.719 104.125 388.656 103.344 388.594 102.531C388.594 101.656 388.562 100.875 388.5 100.188C388.5 99.4375 388.5 98.9062 388.5 98.5938C388.438 96.8438 388.406 94.1875 388.406 90.625C388.469 87.0625 388.5 83.1562 388.5 78.9062C388.562 74.5938 388.625 70.1875 388.688 65.6875C388.75 61.1875 388.781 57.0938 388.781 53.4062C388.781 49.6562 388.75 46.5625 388.688 44.125C388.688 41.6875 388.625 40.4375 388.5 40.375C388.5 39.75 388.719 39.125 389.156 38.5C389.594 37.8125 390.156 37.5312 390.844 37.6562C391.344 37.6562 391.906 37.75 392.531 37.9375C393.219 38.0625 393.844 38.2812 394.406 38.5938C394.969 38.9062 395.438 39.3125 395.812 39.8125C396.25 40.25 396.469 40.8125 396.469 41.5V68.875H396.844L407.625 56.5938C408.062 56.0312 408.469 55.375 408.844 54.625C409.281 53.875 409.719 53.1562 410.156 52.4688C410.594 51.7812 411.094 51.1562 411.656 50.5938C412.219 50.0312 412.938 49.6562 413.812 49.4688C415.125 49.7812 416.25 50.2188 417.188 50.7812C418.125 51.3438 418.594 52.3438 418.594 53.7812C418.594 53.9062 418.531 54.125 418.406 54.4375C418.344 54.6875 418.281 54.875 418.219 55C418.031 55.25 417.625 55.75 417 56.5C416.438 57.1875 415.469 58.375 414.094 60.0625C412.781 61.6875 410.969 63.875 408.656 66.625C406.406 69.3125 403.5 72.8125 399.938 77.125L400.781 77.5938L418.969 79.4688C419.781 79.5938 420.5 80.0625 421.125 80.875C421.812 81.625 422.156 82.3438 422.156 83.0312C422.156 84.2812 421.688 85.1875 420.75 85.75C419.875 86.25 418.906 86.5625 417.844 86.6875C417.781 86.4375 417.562 86.3125 417.188 86.3125C416.875 86.25 416.031 86.1562 414.656 86.0312C413.281 85.9062 411.188 85.7188 408.375 85.4688C405.625 85.1562 401.781 84.625 396.844 83.875L397.219 106.188C397.219 107.438 397 108.375 396.562 109C396.125 109.688 395.156 110.031 393.656 110.031C392.531 110.031 391.531 109.656 390.656 108.906C389.844 108.219 389.25 107.406 388.875 106.469ZM464.156 76.375C464.031 77.5 463.875 78.375 463.688 79C463.562 79.625 463.312 80.1875 462.938 80.6875C462.562 81.1875 462.031 81.7188 461.344 82.2812C460.656 82.7812 459.719 83.5312 458.531 84.5312C457.344 85.4688 455.875 86.7188 454.125 88.2812C452.375 89.8438 450.25 91.875 447.75 94.375C446.75 95.3125 445.719 96.2812 444.656 97.2812C443.594 98.2812 442.469 99.1875 441.281 100C440.156 100.75 438.969 101.375 437.719 101.875C436.469 102.375 435.156 102.625 433.781 102.625C431.094 102.625 429.125 101.719 427.875 99.9062C426.625 98.0938 426 96 426 93.625C426 92.0625 426.031 90.75 426.094 89.6875C426.219 88.625 426.469 87.25 426.844 85.5625C426.156 84.9375 425.562 84.4062 425.062 83.9688C424.562 83.4688 424.312 82.8125 424.312 82C424.312 81.25 424.469 80.75 424.781 80.5C425.156 80.25 425.562 80.0938 426 80.0312C426.5 79.9062 426.969 79.7812 427.406 79.6562C427.844 79.5312 428.156 79.2812 428.344 78.9062C428.469 78.5312 428.688 77.8438 429 76.8438C429.375 75.8438 429.75 74.8125 430.125 73.75C430.5 72.625 430.844 71.5938 431.156 70.6562C431.531 69.6562 431.781 68.9688 431.906 68.5938C432.344 67.5312 432.812 66.4688 433.312 65.4062C433.875 64.2812 434.5 63.2812 435.188 62.4062C435.938 61.5312 436.781 60.8125 437.719 60.25C438.719 59.6875 439.875 59.4062 441.188 59.4062C441.938 59.4062 442.844 59.75 443.906 60.4375C445.031 61.125 446.094 61.9688 447.094 62.9688C448.094 63.9062 448.938 64.9062 449.625 65.9688C450.312 67.0312 450.656 67.9375 450.656 68.6875C450.656 69.625 450.438 70.5 450 71.3125C449.562 72.0625 449 72.7812 448.312 73.4688C447.688 74.0938 447 74.6875 446.25 75.25C445.5 75.8125 444.812 76.3438 444.188 76.8438C444.125 76.8438 444 76.9062 443.812 77.0312C443.625 77.1562 443.469 77.25 443.344 77.3125C443.281 77.375 443.125 77.5312 442.875 77.7812C442.688 77.9688 442.469 78.1875 442.219 78.4375C441.969 78.6875 441.719 78.9375 441.469 79.1875C441.281 79.4375 441.156 79.5938 441.094 79.6562C440.906 79.8438 440.531 80.1562 439.969 80.5938C439.469 80.9688 438.906 81.4062 438.281 81.9062C437.656 82.3438 437.062 82.7812 436.5 83.2188C436 83.5938 435.656 83.8438 435.469 83.9688L435.094 84.7188C434.969 84.9688 434.844 85.5312 434.719 86.4062C434.656 87.2188 434.562 88.1562 434.438 89.2188C434.312 90.2812 434.188 91.375 434.062 92.5C434 93.5625 433.969 94.4375 433.969 95.125C433.969 95.1875 434 95.25 434.062 95.3125C434.188 95.4375 434.281 95.5 434.344 95.5C434.844 95.5 435.312 95.2812 435.75 94.8438C436.188 94.4062 436.656 94.0938 437.156 93.9062L452.156 80.0312L456 74.125C456.312 73.6875 456.906 73.2188 457.781 72.7188C458.719 72.1562 459.656 71.875 460.594 71.875C461.531 71.8125 462.344 72.0938 463.031 72.7188C463.781 73.3438 464.156 74.5625 464.156 76.375ZM443.531 69.0625C443.844 68.8125 443.969 68.4375 443.906 67.9375C443.844 67.4375 443.656 67 443.344 66.625C443.094 66.25 442.75 66.0312 442.312 65.9688C441.875 65.8438 441.469 66.0625 441.094 66.625C440.906 66.875 440.562 67.375 440.062 68.125C439.625 68.875 439.156 69.6562 438.656 70.4688C438.219 71.2188 437.844 71.875 437.531 72.4375C437.219 73 437.156 73.2188 437.344 73.0938L443.531 69.0625ZM475.688 75.625C474.812 75.625 474.031 75.8438 473.344 76.2812C472.656 76.7188 471.844 76.9375 470.906 76.9375C470.781 76.9375 470.438 76.9375 469.875 76.9375C469.375 76.875 469.062 76.8438 468.938 76.8438C468.688 76.5312 468.406 76.2812 468.094 76.0938C467.781 75.9062 467.469 75.7188 467.156 75.5312C466.844 75.2812 466.562 75 466.312 74.6875C466.125 74.375 466.031 73.9375 466.031 73.375C466.031 72.4375 466.406 71.6875 467.156 71.125C467.906 70.5 468.781 69.9688 469.781 69.5312C470.781 69.0938 471.781 68.6875 472.781 68.3125C473.844 67.9375 474.688 67.5 475.312 67V62.875C475.312 58.25 475.094 53.625 474.656 49C474.219 44.3125 474 39.6875 474 35.125C474 33.875 474.312 33.0625 474.938 32.6875C475.562 32.3125 476.406 32.125 477.469 32.125C478.719 32.125 479.625 32.5 480.188 33.25C480.812 33.9375 481.25 34.8125 481.5 35.875C481.75 36.875 481.875 37.9688 481.875 39.1562C481.875 40.2812 481.906 41.25 481.969 42.0625C481.969 42.875 482.031 44.3125 482.156 46.375C482.281 48.4375 482.406 50.625 482.531 52.9375C482.656 55.25 482.781 57.4375 482.906 59.5C483.031 61.5625 483.125 63 483.188 63.8125C483.438 63.75 483.906 63.5938 484.594 63.3438C485.344 63.0312 486.125 62.75 486.938 62.5C487.75 62.1875 488.5 61.9062 489.188 61.6562C489.938 61.4062 490.469 61.2188 490.781 61.0938C492.406 60.4062 494.094 59.6562 495.844 58.8438C497.594 57.9688 499.375 57.5312 501.188 57.5312C502.438 57.5312 503.375 57.9688 504 58.8438C504.688 59.6562 505.031 60.625 505.031 61.75C505.031 62.5625 504.719 63.1562 504.094 63.5312C503.469 63.9062 502.812 64.25 502.125 64.5625L485.062 70.9375C484.875 71.0625 484.688 71.1875 484.5 71.3125C484.312 71.375 484.125 71.5 483.938 71.6875V74.6875C483.938 76.875 483.969 79.1562 484.031 81.5312C484.156 83.8438 484.375 86.0938 484.688 88.2812C485 90.1562 485.344 92 485.719 93.8125C486.094 95.625 486.281 97.4688 486.281 99.3438C486.281 99.9062 486.094 100.656 485.719 101.594C485.344 102.531 484.75 103 483.938 103C482.25 103 480.875 102.5 479.812 101.5C478.75 100.5 478.156 99.1562 478.031 97.4688C477.719 94.2188 477.375 90.6562 477 86.7812C476.688 82.9062 476.375 79.1875 476.062 75.625H475.688Z" fill="#FFFAF4"/>
</svg>
